<svg width="70" height="70" viewBox="0 0 70 70" fill="none" xmlns="http://www.w3.org/2000/svg">
<rect width="70" height="70" rx="26" fill="#62BD43"/>
<path d="M34.9954 62C32.1586 62 29.4897 60.9203 27.4471 58.9375C25.3229 56.8768 24.1531 54.1122 24.1531 51.1532V46.9958C24.1531 44.2774 25.2554 41.6162 27.1778 39.6955L39.6949 27.178C40.7935 26.0794 41.4238 24.5586 41.4238 23.005V19.2112C41.4238 15.5739 38.6316 12.5314 35.1987 12.4276C33.4615 12.3945 31.7844 13.018 30.5274 14.2377C29.2698 15.4588 28.5772 17.096 28.5772 18.8484V26.3664C28.5772 27.5874 27.587 28.578 26.3654 28.578H19.2094C15.5727 28.578 12.5302 31.37 12.4271 34.8012C12.3738 36.5567 13.0168 38.2155 14.2364 39.4724C15.4576 40.7309 17.0946 41.4235 18.8473 41.4235C20.0692 41.4235 21.059 42.4141 21.059 43.6352C21.059 44.8563 20.0692 45.8469 18.8473 45.8469C15.8882 45.8469 13.1233 44.6778 11.062 42.5538C9.00225 40.43 7.91662 37.6307 8.005 34.6689C8.17931 28.8716 13.2053 24.1543 19.2094 24.1543H24.1529V18.8484C24.1529 15.8891 25.3228 13.1246 27.4469 11.0641C29.5695 9.00312 32.3579 7.90181 35.3315 8.00688C41.1297 8.18094 45.8471 13.2078 45.8471 19.2112V23.0052C45.8471 25.7241 44.7447 28.3851 42.8224 30.3056L30.3052 42.8231C29.2066 43.9217 28.5767 45.4423 28.5767 46.9958V51.1532C28.5767 52.9053 29.2692 54.5425 30.527 55.7638C31.7847 56.985 33.458 57.6199 35.199 57.5739C38.6311 57.4703 41.4233 54.4277 41.4233 50.7903V43.6352C41.4233 42.4141 42.4134 41.4235 43.635 41.4235H50.7903C54.427 41.4235 57.4695 38.6315 57.5727 35.2001C57.626 33.4448 56.983 31.7859 55.7628 30.529C54.5423 29.2705 52.905 28.5777 51.1527 28.5777C49.9308 28.5777 48.9409 27.5871 48.9409 26.3661C48.9409 25.1449 49.931 24.1543 51.1527 24.1543C54.1118 24.1543 56.8766 25.3234 58.9379 27.4474C60.998 29.5713 62.0835 32.3705 61.995 35.3324C61.8208 41.1297 56.7946 45.8469 50.7905 45.8469H45.8472V50.7903C45.8472 56.7935 41.1299 61.8201 35.3325 61.9942C35.2191 61.9988 35.1069 62 34.9954 62Z" fill="white"/>
</svg>
