<svg width="247" height="70" viewBox="0 0 247 70" fill="none" xmlns="http://www.w3.org/2000/svg">
<path d="M29.9949 65C26.8429 65 23.8774 63.8003 21.6079 61.5972C19.2477 59.3075 17.9479 56.2357 17.9479 52.948V48.3287C17.9479 45.3082 19.1727 42.3514 21.3087 40.2172L35.2165 26.3089C36.4372 25.0882 37.1376 23.3985 37.1376 21.6722V17.4569C37.1376 13.4155 34.0351 10.0349 30.2208 9.91955C28.2906 9.88273 26.4271 10.5756 25.0305 11.9307C23.6331 13.2875 22.8636 15.1067 22.8636 17.0538V25.4071C22.8636 26.7638 21.7633 27.8645 20.406 27.8645H12.4549C8.41414 27.8645 5.03352 30.9667 4.91895 34.7791C4.85976 36.7297 5.57418 38.5728 6.92937 39.9693C8.28619 41.3677 10.1051 42.1372 12.0525 42.1372C13.4102 42.1372 14.51 43.2378 14.51 44.5947C14.51 45.9514 13.4102 47.0521 12.0525 47.0521C8.76466 47.0521 5.69257 45.7531 3.40227 43.3931C1.11361 41.0334 -0.0926458 37.923 0.00555658 34.6321C0.199233 28.1907 5.78367 22.9492 12.4549 22.9492H17.9476V17.0538C17.9476 13.7657 19.2475 10.694 21.6076 8.40455C23.9661 6.11457 27.0643 4.8909 30.3684 5.00765C36.8107 5.20105 42.0523 10.7864 42.0523 17.4569V21.6725C42.0523 24.6934 40.8274 27.6501 38.6916 29.784L24.7836 43.6923C23.5629 44.913 22.863 46.6026 22.863 48.3287V52.948C22.863 54.8948 23.6325 56.7139 25.03 58.0709C26.4274 59.4278 28.2867 60.1332 30.2211 60.0821C34.0345 59.967 37.137 56.5863 37.137 52.5448V44.5947C37.137 43.2378 38.2371 42.1372 39.5944 42.1372H47.5447C51.5856 42.1372 54.9661 39.035 55.0807 35.2224C55.14 33.272 54.4255 31.4288 53.0698 30.0322C51.7137 28.6339 49.8945 27.8642 47.9475 27.8642C46.5898 27.8642 45.4899 26.7635 45.4899 25.4068C45.4899 24.0499 46.59 22.9492 47.9475 22.9492C51.2353 22.9492 54.3073 24.2482 56.5977 26.6082C58.8867 28.9681 60.0928 32.0783 59.9944 35.3694C59.8009 41.8108 54.2163 47.0521 47.545 47.0521H42.0525V52.5448C42.0525 59.215 36.811 64.8001 30.3694 64.9936C30.2434 64.9987 30.1188 65 29.9949 65Z" fill="#62BD43"/>
<path d="M91.456 21.6H96V44H91.616V29.472L85.312 39.872H84.8L78.496 29.504V44H74.08V21.6H78.624L85.056 32.192L91.456 21.6ZM115.534 37.696H103.47C104.003 39.7013 105.507 40.704 107.982 40.704C109.56 40.704 110.755 40.1707 111.566 39.104L114.894 41.024C113.315 43.3067 110.99 44.448 107.918 44.448C105.272 44.448 103.15 43.648 101.55 42.048C99.9498 40.448 99.1497 38.432 99.1497 36C99.1497 33.6107 99.9391 31.6053 101.518 29.984C103.075 28.3627 105.102 27.552 107.598 27.552C109.966 27.552 111.896 28.3627 113.39 29.984C114.926 31.6053 115.694 33.6107 115.694 36C115.694 36.448 115.64 37.0133 115.534 37.696ZM103.406 34.496H111.566C111.331 33.4507 110.851 32.6507 110.126 32.096C109.422 31.5413 108.579 31.264 107.598 31.264C106.488 31.264 105.571 31.552 104.846 32.128C104.12 32.6827 103.64 33.472 103.406 34.496ZM132.351 28V40.128H134.463V48.288H130.431V44H120.511V48.288H116.479V40.128H118.431C119.348 38.7627 119.807 36.8747 119.807 34.464V28H132.351ZM122.847 40.128H128.319V31.712H123.839V34.464C123.839 36.768 123.508 38.656 122.847 40.128ZM152.116 21.6H161.076V44H156.66V36.224H154.132L148.98 44H144.02L149.492 35.744C148.062 35.232 146.9 34.3573 146.004 33.12C145.108 31.8827 144.66 30.5173 144.66 29.024C144.66 26.976 145.385 25.2267 146.836 23.776C148.286 22.3253 150.046 21.6 152.116 21.6ZM152.116 32.352H156.66V25.728H152.116C151.284 25.728 150.569 26.048 149.972 26.688C149.374 27.328 149.076 28.1067 149.076 29.024C149.076 29.9413 149.374 30.7307 149.972 31.392C150.569 32.032 151.284 32.352 152.116 32.352ZM173.172 35.904L179.796 44H174.996L169.172 36.736V44H165.044V28H169.172V35.04L174.676 28H179.604L173.172 35.904ZM188.581 38.752L192.133 28H196.549L190.725 44C189.103 48.5013 186.287 50.6347 182.277 50.4V46.56C183.365 46.5813 184.218 46.3787 184.837 45.952C185.477 45.5253 185.989 44.8107 186.373 43.808L179.909 28H184.293L188.581 38.752ZM197.195 28H211.371V31.968H206.379V44H202.251V31.968H197.195V28ZM217.608 37.088L225.128 28H228.2V44H224.168V34.912L216.648 44H213.576V28H217.608V37.088ZM237.326 28H244.814V44H240.782V39.008H239.342L235.662 44H230.894L234.894 38.528C233.87 38.1013 233.048 37.4293 232.43 36.512C231.832 35.5947 231.534 34.592 231.534 33.504C231.534 32.032 232.067 30.7413 233.134 29.632C234.179 28.544 235.576 28 237.326 28ZM240.782 31.68H237.646C237.048 31.68 236.547 31.8613 236.142 32.224C235.758 32.5867 235.566 33.056 235.566 33.632C235.566 34.208 235.758 34.6667 236.142 35.008C236.547 35.3493 237.048 35.52 237.646 35.52H240.782V31.68Z" fill="#181443"/>
</svg>
