<svg width="42" height="42" viewBox="0 0 42 42" fill="none" xmlns="http://www.w3.org/2000/svg">
<rect width="42" height="42" rx="10" fill="#004CFF"/>
<path d="M27.1387 19.7307C27.9507 18.3468 28.3014 16.7404 28.14 15.144C27.9014 12.7653 26.5734 10.6627 24.4027 9.224L22.9294 11.4453C24.4214 12.4347 25.3294 13.844 25.4867 15.4107C25.5592 16.1388 25.4686 16.8739 25.2213 17.5626C24.9741 18.2513 24.5765 18.8763 24.0574 19.392L22.468 20.9813L24.6254 21.6147C30.268 23.268 30.3334 28.9427 30.3334 29H33C33 26.6147 31.7254 21.9533 27.1387 19.7307Z" fill="white"/>
<path d="M17.6666 21C20.608 21 23 18.608 23 15.6667C23 12.7253 20.608 10.3333 17.6666 10.3333C14.7253 10.3333 12.3333 12.7253 12.3333 15.6667C12.3333 18.608 14.7253 21 17.6666 21ZM17.6666 13C19.1373 13 20.3333 14.196 20.3333 15.6667C20.3333 17.1373 19.1373 18.3333 17.6666 18.3333C16.196 18.3333 15 17.1373 15 15.6667C15 14.196 16.196 13 17.6666 13ZM19.6666 22.3333H15.6666C11.2546 22.3333 7.66663 25.9213 7.66663 30.3333V31.6667H10.3333V30.3333C10.3333 27.392 12.7253 25 15.6666 25H19.6666C22.608 25 25 27.392 25 30.3333V31.6667H27.6666V30.3333C27.6666 25.9213 24.0786 22.3333 19.6666 22.3333Z" fill="white"/>
</svg>
