<svg width="32" height="32" viewBox="0 0 32 32" fill="none" xmlns="http://www.w3.org/2000/svg">
<path d="M6.29492 25.3067L7.66683 20.3249C6.81866 18.8626 6.37371 17.2066 6.37835 15.5137C6.37835 10.209 10.7166 5.896 16.042 5.896C18.6282 5.896 21.0569 6.89698 22.8784 8.71442C24.7045 10.5319 25.7103 12.949 25.7056 15.5183C25.7056 20.8231 21.3674 25.136 16.0373 25.136H16.0327C14.4152 25.136 12.8254 24.7301 11.4118 23.9644L6.29492 25.3067ZM11.6574 22.2253L11.9494 22.4006C13.1823 23.1295 14.5959 23.5123 16.0373 23.5169H16.042C20.4683 23.5169 24.0742 19.9328 24.0742 15.5229C24.0742 13.3872 23.2399 11.3806 21.7243 9.86763C20.2087 8.35462 18.1879 7.52432 16.042 7.52432C11.6157 7.51971 8.00981 11.1039 8.00981 15.5137C8.00981 17.0221 8.43158 18.4936 9.23804 19.7667L9.42807 20.0712L8.61697 23.0188L11.6574 22.2253Z" fill="#ACACAC"/>
<path d="M6.29492 25.3067L7.66683 20.3249C6.81866 18.8626 6.37371 17.2066 6.37835 15.5137C6.37835 10.209 10.7166 5.896 16.042 5.896C18.6282 5.896 21.0569 6.89698 22.8784 8.71442C24.7045 10.5319 25.7103 12.949 25.7056 15.5183C25.7056 20.8231 21.3674 25.136 16.0373 25.136H16.0327C14.4152 25.136 12.8254 24.7301 11.4118 23.9644L6.29492 25.3067ZM11.6574 22.2253L11.9494 22.4006C13.1823 23.1295 14.5959 23.5123 16.0373 23.5169H16.042C20.4683 23.5169 24.0742 19.9328 24.0742 15.5229C24.0742 13.3872 23.2399 11.3806 21.7243 9.86763C20.2087 8.35462 18.1879 7.52432 16.042 7.52432C11.6157 7.51971 8.00981 11.1039 8.00981 15.5137C8.00981 17.0221 8.43158 18.4936 9.23804 19.7667L9.42807 20.0712L8.61697 23.0188L11.6574 22.2253Z" fill="#ACACAC"/>
<path fill-rule="evenodd" clip-rule="evenodd" d="M13.6273 11.4913C13.4466 11.09 13.2565 11.0808 13.0851 11.0762C12.946 11.0716 12.7838 11.0716 12.6216 11.0716C12.4594 11.0716 12.1998 11.1315 11.9773 11.3714C11.7549 11.6113 11.1338 12.1925 11.1338 13.378C11.1338 14.5588 12.0005 15.7028 12.121 15.8643C12.2415 16.0257 13.7942 18.5305 16.246 19.4946C18.2853 20.2972 18.7025 20.1357 19.1428 20.0942C19.5831 20.0527 20.5703 19.513 20.7742 18.9502C20.9735 18.3875 20.9735 17.9078 20.9133 17.8063C20.853 17.7048 20.6908 17.6448 20.4498 17.5249C20.2088 17.405 19.0223 16.8237 18.7998 16.7407C18.5773 16.6623 18.4151 16.6208 18.2575 16.8606C18.0953 17.1005 17.6318 17.6402 17.4928 17.8017C17.3537 17.9631 17.2101 17.9816 16.969 17.8616C16.728 17.7417 15.9494 17.488 15.0271 16.6669C14.3087 16.0303 13.822 15.2415 13.6829 15.0017C13.5439 14.7618 13.669 14.6327 13.7896 14.5127C13.8962 14.4066 14.0306 14.2313 14.1511 14.093C14.2716 13.9546 14.3133 13.8531 14.3921 13.6916C14.4709 13.5302 14.4338 13.3918 14.3735 13.2719C14.3133 13.1566 13.8405 11.9664 13.6273 11.4913Z" fill="#ACACAC"/>
</svg>
