<svg width="24" height="24" viewBox="0 0 24 24" fill="none" xmlns="http://www.w3.org/2000/svg">
<path d="M18.4365 13.956C18.008 13.5472 17.4387 13.3192 16.8465 13.3192C16.2545 13.3192 15.685 13.5472 15.2565 13.956L14.9103 14.3023C13.0271 12.7205 11.2852 10.9776 9.70418 9.09353L10.0504 8.74714C10.4719 8.32542 10.7087 7.75343 10.7087 7.15706C10.7087 6.56075 10.4719 5.98876 10.0504 5.56704L8.14297 3.65892C7.93414 3.45001 7.68629 3.28431 7.41347 3.17121C7.14065 3.05817 6.84823 3 6.55296 3C6.25762 3 5.96526 3.05817 5.69245 3.17121C5.41963 3.28431 5.17171 3.45001 4.96294 3.65892L3.91704 4.70517C3.40644 5.21893 3.08819 5.89289 3.0158 6.61376C2.9434 7.33463 3.12131 8.05841 3.51957 8.66353C6.63065 13.3546 10.6489 17.3754 15.3375 20.489C15.9443 20.8817 16.6666 21.0563 17.3857 20.984C18.1048 20.9117 18.7779 20.597 19.2945 20.0914L20.3413 19.0451C20.5501 18.8363 20.7158 18.5883 20.8288 18.3154C20.9418 18.0425 21 17.75 21 17.4546C21 17.1592 20.9418 16.8667 20.8288 16.5938C20.7158 16.3208 20.5501 16.0729 20.3413 15.8641L18.4365 13.956Z" fill="#62BD43"/>
</svg>
