<svg width="62" height="62" viewBox="0 0 62 62" fill="none" xmlns="http://www.w3.org/2000/svg">
<g clip-path="url(#clip0_74_392)">
<path d="M62 0H0V62H62V0Z" fill="white"/>
<g filter="url(#filter0_d_74_392)">
<path d="M62 0H0V62H62V0Z" fill="#62BD43"/>
</g>
<path d="M47.8656 27.5098C47.8658 27.3842 47.8323 27.2608 47.7685 27.1525C47.7048 27.0442 47.6132 26.955 47.5032 26.8941C47.3933 26.8333 47.2691 26.803 47.1435 26.8065C47.0178 26.81 46.8955 26.8471 46.7891 26.9139L34.3508 35.5659C33.3448 36.1904 32.1843 36.5213 31.0002 36.5213C29.8161 36.5213 28.6556 36.1904 27.6496 35.5659L15.2085 26.9139C15.1028 26.8468 14.9809 26.8095 14.8557 26.8061C14.7305 26.8026 14.6067 26.8331 14.4974 26.8942C14.3872 26.9548 14.2954 27.0439 14.2316 27.1523C14.1678 27.2606 14.1344 27.3841 14.1348 27.5098V39.4252C14.1348 40.5435 14.579 41.6159 15.3697 42.4067C16.1604 43.1974 17.2329 43.6416 18.3511 43.6416H43.6493C44.7675 43.6416 45.84 43.1974 46.6307 42.4067C47.4214 41.6159 47.8656 40.5435 47.8656 39.4252V27.5098Z" fill="white"/>
<path d="M47.8657 22.5746C47.8657 21.4564 47.4214 20.3839 46.6307 19.5932C45.84 18.8025 44.7675 18.3583 43.6493 18.3583H18.3511C17.2329 18.3583 16.1604 18.8025 15.3697 19.5932C14.579 20.3839 14.1348 21.4564 14.1348 22.5746C14.1344 22.6101 14.1433 22.6451 14.1606 22.6762C14.1778 22.7072 14.2028 22.7332 14.2332 22.7517L29.8759 33.4107C30.2108 33.6189 30.5974 33.7293 30.9918 33.7293C31.3862 33.7293 31.7727 33.6189 32.1077 33.4107L47.7588 22.7517C47.7904 22.7339 47.8167 22.7082 47.8355 22.6772C47.8542 22.6462 47.8646 22.6108 47.8657 22.5746Z" fill="white"/>
</g>
<defs>
<filter id="filter0_d_74_392" x="-12" y="-9" width="86" height="86" filterUnits="userSpaceOnUse" color-interpolation-filters="sRGB">
<feFlood flood-opacity="0" result="BackgroundImageFix"/>
<feColorMatrix in="SourceAlpha" type="matrix" values="0 0 0 0 0 0 0 0 0 0 0 0 0 0 0 0 0 0 127 0" result="hardAlpha"/>
<feOffset dy="3"/>
<feGaussianBlur stdDeviation="6"/>
<feColorMatrix type="matrix" values="0 0 0 0 0.363667 0 0 0 0 0.308333 0 0 0 0 1 0 0 0 0.11 0"/>
<feBlend mode="normal" in2="BackgroundImageFix" result="effect1_dropShadow_74_392"/>
<feBlend mode="normal" in="SourceGraphic" in2="effect1_dropShadow_74_392" result="shape"/>
</filter>
<clipPath id="clip0_74_392">
<rect width="62" height="62" fill="white"/>
</clipPath>
</defs>
</svg>
