<svg width="62" height="62" viewBox="0 0 62 62" fill="none" xmlns="http://www.w3.org/2000/svg">
<g clip-path="url(#clip0_100_484)">
<path d="M62 0H0V62H62V0Z" fill="white"/>
<g filter="url(#filter0_d_100_484)">
<path d="M62 0H0V62H62V0Z" fill="#62BD43"/>
</g>
<path d="M12 50L14.6858 40.2471C13.0253 37.3845 12.1543 34.1426 12.1633 30.8284C12.1633 20.4434 20.6562 12 31.0816 12C36.1447 12 40.8992 13.9596 44.4651 17.5176C48.0401 21.0756 50.009 25.8075 50 30.8375C50 41.2224 41.5071 49.6659 31.0726 49.6659H31.0635C27.8968 49.6659 24.7846 48.8712 22.0172 47.3722L12 50ZM22.4981 43.9677L23.0697 44.3108C25.4833 45.7376 28.2507 46.4872 31.0726 46.4962H31.0816C39.7469 46.4962 46.8061 39.4796 46.8061 30.8465C46.8061 26.6654 45.1728 22.7372 42.2058 19.7752C39.2388 16.8132 35.2827 15.1877 31.0816 15.1877C22.4164 15.1787 15.3572 22.1953 15.3572 30.8284C15.3572 33.7814 16.1829 36.6621 17.7617 39.1545L18.1337 39.7505L16.5458 45.5209L22.4981 43.9677Z" fill="white"/>
<path fill-rule="evenodd" clip-rule="evenodd" d="M26.8272 22.8336C26.4773 22.0366 26.1094 22.0183 25.7774 22.0092C25.5082 22 25.1942 22 24.8802 22C24.5661 22 24.0637 22.1191 23.633 22.5954C23.2023 23.0718 22 24.226 22 26.5802C22 28.9253 23.6779 31.1971 23.9111 31.5177C24.1444 31.8384 27.1502 36.8125 31.8966 38.727C35.8445 40.3209 36.6521 40.0003 37.5044 39.9179C38.3568 39.8354 40.268 38.7637 40.6627 37.6461C41.0486 36.5285 41.0486 35.5758 40.9319 35.3743C40.8153 35.1728 40.5012 35.0537 40.0347 34.8155C39.5681 34.5773 37.2711 33.4231 36.8405 33.2582C36.4098 33.1025 36.0958 33.0201 35.7907 33.4964C35.4767 33.9727 34.5794 35.0445 34.3102 35.3651C34.0411 35.6858 33.7629 35.7224 33.2963 35.4842C32.8298 35.246 31.3224 34.7422 29.5369 33.1117C28.1461 31.8475 27.204 30.2811 26.9349 29.8047C26.6657 29.3284 26.9079 29.0719 27.1412 28.8337C27.3476 28.623 27.6078 28.2749 27.8411 28.0001C28.0744 27.7253 28.1551 27.5238 28.3076 27.2032C28.4602 26.8825 28.3884 26.6077 28.2718 26.3695C28.1551 26.1405 27.2399 23.7771 26.8272 22.8336Z" fill="white"/>
</g>
<defs>
<filter id="filter0_d_100_484" x="-12" y="-9" width="86" height="86" filterUnits="userSpaceOnUse" color-interpolation-filters="sRGB">
<feFlood flood-opacity="0" result="BackgroundImageFix"/>
<feColorMatrix in="SourceAlpha" type="matrix" values="0 0 0 0 0 0 0 0 0 0 0 0 0 0 0 0 0 0 127 0" result="hardAlpha"/>
<feOffset dy="3"/>
<feGaussianBlur stdDeviation="6"/>
<feColorMatrix type="matrix" values="0 0 0 0 0.363667 0 0 0 0 0.308333 0 0 0 0 1 0 0 0 0.11 0"/>
<feBlend mode="normal" in2="BackgroundImageFix" result="effect1_dropShadow_100_484"/>
<feBlend mode="normal" in="SourceGraphic" in2="effect1_dropShadow_100_484" result="shape"/>
</filter>
<clipPath id="clip0_100_484">
<rect width="62" height="62" fill="white"/>
</clipPath>
</defs>
</svg>
