<svg width="56" height="56" viewBox="0 0 56 56" fill="none" xmlns="http://www.w3.org/2000/svg">
<path d="M44.6469 24.4374C44.647 24.3118 44.6135 24.1884 44.5498 24.0801C44.486 23.9718 44.3944 23.8826 44.2845 23.8217C44.1745 23.7609 44.0503 23.7306 43.9247 23.7341C43.7991 23.7376 43.6767 23.7747 43.5703 23.8415L31.132 32.4935C30.1261 33.118 28.9655 33.4489 27.7814 33.4489C26.5974 33.4489 25.4368 33.118 24.4308 32.4935L11.9898 23.8415C11.884 23.7744 11.7621 23.7371 11.6369 23.7337C11.5117 23.7302 11.3879 23.7607 11.2786 23.8218C11.1685 23.8824 11.0767 23.9716 11.0129 24.0799C10.949 24.1882 10.9156 24.3117 10.916 24.4374V36.3529C10.916 37.4711 11.3602 38.5436 12.151 39.3343C12.9417 40.125 14.0141 40.5692 15.1324 40.5692H40.4305C41.5488 40.5692 42.6212 40.125 43.4119 39.3343C44.2027 38.5436 44.6469 37.4711 44.6469 36.3529V24.4374Z" fill="#62BD43"/>
<path d="M44.6469 19.5022C44.6469 18.384 44.2027 17.3116 43.4119 16.5208C42.6212 15.7301 41.5488 15.2859 40.4305 15.2859H15.1324C14.0141 15.2859 12.9417 15.7301 12.151 16.5208C11.3602 17.3116 10.916 18.384 10.916 19.5022C10.9157 19.5378 10.9246 19.5727 10.9418 19.6038C10.9591 19.6348 10.9841 19.6609 11.0144 19.6793L26.6571 30.3383C26.9921 30.5465 27.3786 30.6569 27.773 30.6569C28.1674 30.6569 28.554 30.5465 28.8889 30.3383L44.5401 19.6793C44.5716 19.6615 44.598 19.6358 44.6167 19.6048C44.6354 19.5738 44.6458 19.5385 44.6469 19.5022Z" fill="#62BD43"/>
</svg>
