<svg width="56" height="56" viewBox="0 0 56 56" fill="none" xmlns="http://www.w3.org/2000/svg">
<path d="M37.7182 30.952C37.0712 30.3351 36.2116 29.991 35.3176 29.991C34.4237 29.991 33.564 30.3351 32.917 30.952L32.3943 31.4748C29.5511 29.0873 26.9211 26.4568 24.5341 23.6132L25.0568 23.0904C25.6932 22.4539 26.0507 21.5906 26.0507 20.6905C26.0507 19.7905 25.6932 18.9272 25.0568 18.2907L22.177 15.4108C21.8617 15.0955 21.4875 14.8454 21.0756 14.6747C20.6637 14.5041 20.2222 14.4163 19.7764 14.4163C19.3305 14.4163 18.8891 14.5041 18.4772 14.6747C18.0653 14.8454 17.691 15.0955 17.3758 15.4108L15.7967 16.9899C15.0258 17.7653 14.5453 18.7825 14.436 19.8705C14.3267 20.9585 14.5953 22.0509 15.1966 22.9642C19.8937 30.0444 25.9604 36.113 33.0392 40.8122C33.9554 41.405 35.0459 41.6685 36.1316 41.5594C37.2173 41.4503 38.2336 40.9752 39.0135 40.2121L40.594 38.633C40.9093 38.3178 41.1594 37.9435 41.33 37.5316C41.5007 37.1198 41.5885 36.6783 41.5885 36.2324C41.5885 35.7866 41.5007 35.3451 41.33 34.9332C41.1594 34.5213 40.9093 34.1471 40.594 33.8319L37.7182 30.952Z" fill="#62BD43"/>
</svg>
