<svg width="56" height="56" viewBox="0 0 56 56" fill="none" xmlns="http://www.w3.org/2000/svg">
<path d="M27.9998 11C24.4316 11.0041 21.0107 12.4234 18.4876 14.9465C15.9644 17.4697 14.5451 20.8906 14.541 24.4588C14.541 33.734 23.8035 42.1507 26.6412 44.5095C27.0227 44.8265 27.5031 45 27.9991 45C28.4951 45 28.9755 44.8265 29.357 44.5095C32.1904 42.1507 41.4586 33.7312 41.4586 24.4574C41.4541 20.8894 40.0346 17.4689 37.5115 14.946C34.9885 12.4232 31.5678 11.0041 27.9998 11ZM27.9998 31.5424C26.5988 31.5424 25.2293 31.1269 24.0644 30.3486C22.8995 29.5702 21.9916 28.4639 21.4554 27.1696C20.9193 25.8752 20.779 24.4509 21.0523 23.0769C21.3257 21.7028 22.0003 20.4406 22.991 19.4499C23.9816 18.4593 25.2438 17.7846 26.6179 17.5113C27.9919 17.238 29.4162 17.3783 30.7106 17.9144C32.0049 18.4506 33.1112 19.3585 33.8896 20.5234C34.6679 21.6883 35.0834 23.0578 35.0834 24.4588C35.0834 25.389 34.9002 26.3101 34.5442 27.1696C34.1882 28.029 33.6664 28.8099 33.0086 29.4676C32.3509 30.1254 31.57 30.6472 30.7106 31.0032C29.8512 31.3591 28.93 31.5424 27.9998 31.5424Z" fill="#62BD43"/>
</svg>
